# xmcd
#
# Track frame offsets:
#	150
#	18919
#	35199
#	47990
#	62702
#	77234
#	99156
#	117131
#	135944
#	151317
#	170019
#	186109
#
# Disc length: 2597 seconds
#
# Revision: 0
# Processed by: cddbd v1.4PL0 Copyright (c) Steve Scherf et al.
# Submitted via: dBpowerAMP V4.0
#
DISCID=970a230c
DTITLE=Prudence Rae - Crave a Better World
DYEAR=1900
DGENRE=Country
TTITLE0=Crave
TTITLE1=But Till Then
TTITLE2=Birdcage
TTITLE3=New York
TTITLE4=Steal
TTITLE5=Microwave
TTITLE6=Why
TTITLE7=Drowning
TTITLE8=Lonely Night
TTITLE9=Toxic
TTITLE10=Joelene
TTITLE11=Hidden Track
EXTD=
EXTT0=
EXTT1=
EXTT2=
EXTT3=
EXTT4=
EXTT5=
EXTT6=
EXTT7=
EXTT8=
EXTT9=
EXTT10=
EXTT11=
PLAYORDER=
